<mxfile host="app.diagrams.net" modified="2024-07-30T15:26:54.495Z" agent="Mozilla/5.0 (Windows NT 10.0; Win64; x64) AppleWebKit/537.36 (KHTML, like Gecko) Chrome/127.0.0.0 Safari/537.36" version="24.7.1" etag="eK9dKLJ1KRmqlV1wzig4" type="github">
  <diagram name="Page-1" id="opT8Z0l4aOG-airhU5SR">
    <mxGraphModel>
      <root>
        <mxCell id="0" />
        <mxCell id="1" parent="0" />
      </root>
    </mxGraphModel>
  </diagram>
</mxfile>
